HIERARCHY
ROOT ui
{
	 OFFSET 0 0 0
	 CHANNELS 3 XPosition YPosition Z Position
	 EndSite
	 {
	 OFFSET 0 -1 0
	 }
}
ROOT li
{
	 OFFSET 0 0 0
	 CHANNELS 3 XPosition YPosition Z Position
	 EndSite
	 {
	 OFFSET 0 -1 0
	 }
}
ROOT ul
{
	 OFFSET 0 0 0
	 CHANNELS 3 XPosition YPosition Z Position
	 EndSite
	 {
	 OFFSET 0 -1 0
	 }
}
ROOT ll
{
	 OFFSET 0 0 0
	 CHANNELS 3 XPosition YPosition Z Position
	 EndSite
	 {
	 OFFSET 0 -1 0
	 }
}
ROOT tt
{
	 OFFSET 0 0 0
	 CHANNELS 3 XPosition YPosition Z Position
	 EndSite
	 {
	 OFFSET 0 -1 0
	 }
}
ROOT tb
{
	 OFFSET 0 0 0
	 CHANNELS 3 XPosition YPosition Z Position
	 EndSite
	 {
	 OFFSET 0 -1 0
	 }
}
ROOT td
{
	 OFFSET 0 0 0
	 CHANNELS 3 XPosition YPosition Z Position
	 EndSite
	 {
	 OFFSET 0 -1 0
	 }
}
ROOT v
{
	 OFFSET 0 0 0
	 CHANNELS 3 XPosition YPosition Z Position
	 EndSite
	 {
	 OFFSET 0 -1 0
	 }
}
ROOT bn
{
	 OFFSET 0 0 0
	 CHANNELS 3 XPosition YPosition Z Position
	 EndSite
	 {
	 OFFSET 0 -1 0
	 }
}
MOTION
Frames: 21
Frame Time: 0.002
-0.022175310134887695	-0.002045140981674194	0		0.6059003295898437	-2.599626708984375	0		-1.0168673095703125	0.23116030883789063	0		-0.2305052032470703	-3.183622314453125	0		1.4827783203125	-1.005223388671875	0		2.946408447265625	-0.5713388061523438	0		4.37580029296875	0.006231947898864746	0		5.9997001953125	0.538110107421875	0		-0.20693960571289063	5.929615234375	0		
0.0026506059169769287	-0.00324045205116272	0		0.6394274291992188	-2.61499951171875	0		-1.0540081787109374	0.2321703186035156	0		-0.22501763916015624	-3.200446044921875	0		1.4833475341796876	-1.018969482421875	0		2.95519287109375	-0.574256591796875	0		4.37845703125	-0.0035839219093322756	0		6.00739599609375	0.5329391479492187	0		-0.20604681396484376	5.92888427734375	0		
0.0024900240898132323	-0.0029497349262237547	0		0.5914654541015625	-2.602790771484375	0		-1.038285400390625	0.22616268920898439	0		-0.22624407958984374	-3.2021337890625	0		1.4749869384765626	-1.028535400390625	0		3.01388134765625	-0.582127685546875	0		4.39723486328125	-0.006696630954742431	0		6.00728173828125	0.5333519897460938	0		-0.19000514221191406	5.93686669921875	0		
0.012515493392944336	0.00715100622177124	0		0.6462348022460938	-2.605559326171875	0		-1.0303160400390625	0.23330906677246094	0		-0.25730810546875	-3.195239990234375	0		1.4854656982421874	-1.0464578857421876	0		3.003003662109375	-0.5666416015625	0		4.412912109375	-0.014735720634460448	0		6.00305126953125	0.554754150390625	0		-0.2062849578857422	5.9294736328125	0		
0.008292287826538085	0.00452915620803833	0		0.6149879150390625	-2.608662353515625	0		-1.013426513671875	0.23628469848632813	0		-0.20180482482910156	-3.21201611328125	0		1.509136962890625	-1.0546243896484375	0		3.019388427734375	-0.5896756591796875	0		4.4385869140625	-0.022951290130615233	0		6.00335693359375	0.5188795776367188	0		-0.2064296875	5.92977490234375	0		
0.001994228959083557	-0.0020488901138305663	0		0.6029591064453125	-2.601127685546875	0		-1.0505836181640624	0.23730424499511718	0		-0.23902239990234375	-3.21399658203125	0		1.5055867919921875	-1.074259033203125	0		3.025068603515625	-0.5974873657226563	0		4.44911181640625	-0.038859043121337894	0		5.99199462890625	0.5406892700195313	0		-0.20658929443359375	5.93007958984375	0		
0.001832856059074402	-0.0017407519817352296	0		0.611589599609375	-2.611989990234375	0		-1.0137523803710937	0.23689627075195313	0		-0.2123553466796875	-3.223208251953125	0		1.494178955078125	-1.08673291015625	0		3.0724365234375	-0.6220941162109375	0		4.46585107421875	-0.043868144989013674	0		5.99327880859375	0.53771923828125	0		-0.2067637176513672	5.9303876953125	0		
0.001673949956893921	-0.0014306279420852662	0		0.5875452270507813	-2.606214599609375	0		-1.0509056396484375	0.2379146728515625	0		-0.2316095733642578	-3.22853173828125	0		1.5008701171875	-1.0945484619140624	0		3.07258935546875	-0.6057708740234375	0		4.48670751953125	-0.04293984985351563	0		5.99727880859375	0.5173541259765625	0		-0.20597317504882812	5.92967724609375	0		
0.007650413990020752	0.005763467788696289	0		0.641380126953125	-2.607939697265625	0		-1.0100147705078124	0.24042605590820312	0		-0.21262808227539062	-3.22258984375	0		1.533484375	-1.1068590087890624	0		3.124791015625	-0.6394500122070312	0		4.5123916015625	-0.05109140396118164	0		6.004296875	0.5176453247070313	0		-0.20617964172363282	5.92998681640625	0		
-0.02361669158935547	6.72806978225708E-4	0		0.5872815551757813	-2.605581298828125	0		-1.051224853515625	0.23851605224609376	0		-0.2359566650390625	-3.232836181640625	0		1.5660830078125	-1.120164306640625	0		3.14479150390625	-0.6314907836914062	0		4.52805859375	-0.06003633880615234	0		5.99154052734375	0.5431165771484375	0		-0.2073841552734375	5.931314453125	0		
0.0012016750574111938	-4.996019899845124E-4	0		0.6359974975585938	-2.614205810546875	0		-0.9784187622070313	0.23640499877929688	0		-0.188096923828125	-3.234454345703125	0		1.5628839111328126	-1.1227747802734376	0		3.162388916015625	-0.6444815063476562	0		4.551685546875	-0.0711234130859375	0		6.00036865234375	0.5018534240722656	0		-0.20762559509277342	5.93162060546875	0		
-0.023931455612182618	0.0012864270210266114	0		0.5850091552734376	-2.606909912109375	0		-1.0515469970703124	0.23909794616699218	0		-0.22013607788085937	-3.230537353515625	0		1.586510498046875	-1.1349027099609375	0		3.168087890625	-0.6522371215820313	0		4.56122021484375	-0.08693122100830078	0		5.99385107421875	0.5045862426757812	0		-0.20690145874023438	5.9309033203125	0		
0.0228111572265625	-0.004316892147064209	0		0.63781982421875	-2.6116171875	0		-1.0147109985351563	0.2386662139892578	0		-0.2275330352783203	-3.246104736328125	0		1.5664217529296875	-1.13218896484375	0		3.21557373046875	-0.6717960205078125	0		4.5889677734375	-0.09208168029785156	0		5.9967177734375	0.5207384033203125	0		-0.19101675415039063	5.9388896484375	0		
-0.009134159088134766	0.006587563991546631	0		0.6017958984375	-2.60762158203125	0		-1.0386436767578124	0.25039501953125	0		-0.19053785705566406	-3.24252880859375	0		1.615158935546875	-1.1398037109375	0		3.208599365234375	-0.6633037109375	0		4.59982421875	-0.09190447235107421	0		5.9966142578125	0.5214634399414062	0		-0.2064745178222656	5.92946728515625	0		
0.02561471939086914	1.9894999265670778E-4	0		0.6309308471679688	-2.596884521484375	0		-0.9790199584960938	0.23750491333007812	0		-0.2183205108642578	-3.22771728515625	0		1.621919677734375	-1.1466185302734375	0		3.220849853515625	-0.69619287109375	0		4.6231171875	-0.1219736328125	0		5.99354541015625	0.50675244140625	0		-0.3410968017578125	5.91231689453125	0		
-0.01956641960144043	-0.002668829917907715	0		0.5867349243164063	-2.60375634765625	0		-1.0151126708984375	0.23943989562988283	0		-0.18845753479003907	-3.233027099609375	0		1.6638265380859374	-1.147114990234375	0		3.24949951171875	-0.7093997802734375	0		4.62300732421875	-0.12159417724609375	0		5.9934638671875	0.5074674682617187	0		-0.23635078430175782	5.91156689453125	0		
0.027234899520874024	-0.00831303310394287	0		0.6375824584960937	-2.61046142578125	0		-1.0192890625	0.2357455596923828	0		-0.23951795959472658	-3.2348017578125	0		1.6257490234375	-1.1470916748046875	0		3.2811494140625	-0.7236724243164062	0		4.63876025390625	-0.1295270233154297	0		5.97984619140625	0.5088014526367187	0		-0.20723747253417968	5.93025732421875	0		
-0.024640090942382814	0.002916317939758301	0		0.5897976684570313	-2.598291748046875	0		-1.052288818359375	0.24058428955078126	0		-0.21426068115234376	-3.22205078125	0		1.638626220703125	-1.151056884765625	0		3.281418212890625	-0.7063475952148438	0		4.6676064453125	-0.13371470642089844	0		5.99631494140625	0.5243069458007813	0		-0.20747676086425781	5.93048876953125	0		
0.030178558349609374	-0.00391247296333313	0		0.6447717895507813	-2.6011025390625	0		-1.0153597412109374	0.24006629943847657	0		-0.2410429229736328	-3.212324462890625	0		1.6608292236328126	-1.1392091064453125	0		3.304749267578125	-0.739479736328125	0		4.67239990234375	-0.1414469451904297	0		5.9861669921875	0.5098997802734375	0		-0.20771421813964844	5.9307021484375	0		
-0.024735864639282228	0.003335270881652832	0		0.6070183715820312	-2.590158203125	0		-0.983488525390625	0.2356246337890625	0		-0.20801689147949218	-3.21475927734375	0		1.6628857421875	-1.135990478515625	0		3.3336923828125	-0.7417183837890625	0		4.68304052734375	-0.1582939453125	0		5.99326904296875	0.5102716674804687	0		-0.20795376586914063	5.93089599609375	0		
0.0252142276763916	0.001566831946372986	0		0.6330325317382812	-2.593446533203125	0		-0.9835191650390624	0.23576960754394533	0		-0.2506248016357422	-3.19877099609375	0		1.6885982666015624	-1.1522366943359375	0		3.29957177734375	-0.7477636108398438	0		4.69885107421875	-0.1672376708984375	0		5.98612060546875	0.5113092041015626	0		-0.2081990966796875	5.9310703125	0		
